<svg width="115" height="40" viewBox="0 0 115 40" fill="none" xmlns="http://www.w3.org/2000/svg">
<path d="M16.4355 8.58109C16.4355 4.82907 19.0646 2.18113 22.779 2.18113C24.665 2.18113 26.2453 2.79021 27.3694 4.00952L25.7315 5.571C25.0272 4.79026 24.0172 4.33287 22.8167 4.33287C20.5685 4.33287 19.007 6.08484 19.007 8.58109C19.007 11.0773 20.5309 12.9046 22.7214 12.9046C24.7215 12.9046 26.1125 11.7617 26.1125 10.1049V9.78159H23.1224V7.70511H28.6275V9.62874C28.6275 12.7905 26.1701 15.0198 22.6462 15.0198C19.1223 15.0198 16.4367 12.3531 16.4367 8.58109H16.4355Z" fill="#EC0000"/>
<path d="M30.2255 10.0861C30.2255 7.17129 32.1879 5.15241 34.9875 5.15241C37.7871 5.15241 39.7307 7.15247 39.7307 10.0285C39.7307 10.2566 39.6931 10.6188 39.6543 10.8669H32.6065C32.7782 12.1426 33.8634 12.9998 35.2544 12.9998C36.2833 12.9998 37.178 12.6188 37.7683 11.9333L39.1969 13.3243C38.3398 14.4296 36.8535 15.0198 35.1392 15.0198C32.2443 15.0198 30.2243 12.9822 30.2243 10.0861H30.2255ZM32.6065 9.13372H37.3497C37.1969 7.89559 36.2444 7.05723 34.9687 7.05723C33.6929 7.05723 32.7405 7.89559 32.6065 9.13372Z" fill="#EC0000"/>
<path d="M43.9025 5.3817V6.65746H43.9402C44.4164 5.68623 45.2547 5.15241 46.34 5.15241C47.5593 5.15241 48.4729 5.68623 49.0444 6.7527C49.6158 5.72386 50.6635 5.15241 51.9968 5.15241C54.3202 5.15241 55.4443 6.44816 55.4443 9.09492V14.7906H53.0821V9.49469C53.0821 7.95203 52.5483 7.20891 51.4442 7.20891C50.3401 7.20891 49.7487 8.02845 49.7487 9.57112V14.7906H47.3865V9.49469C47.3865 7.93321 46.8726 7.20891 45.7486 7.20891C44.6245 7.20891 44.053 8.04727 44.053 9.57112V14.7906H41.6908V5.3817H43.9025Z" fill="#EC0000"/>
<path d="M57.3127 10.0861C57.3127 7.17129 59.2751 5.15241 62.0747 5.15241C64.8743 5.15241 66.818 7.15247 66.818 10.0285C66.818 10.2566 66.7803 10.6188 66.7415 10.8669H59.6937C59.8654 12.1426 60.9506 12.9998 62.3416 12.9998C63.3705 12.9998 64.2653 12.6188 64.8555 11.9333L66.2841 13.3243C65.427 14.4296 63.9407 15.0198 62.2264 15.0198C59.3316 15.0198 57.3115 12.9822 57.3115 10.0861H57.3127ZM59.6937 9.13372H64.4369C64.2841 7.89559 63.3317 7.05723 62.0559 7.05723C60.7802 7.05723 59.8277 7.89559 59.6937 9.13372Z" fill="#EC0000"/>
<path d="M68.1889 10.0861C68.1889 7.17129 70.1514 5.15241 72.951 5.15241C75.7506 5.15241 77.6942 7.15247 77.6942 10.0285C77.6942 10.2566 77.6566 10.6188 77.6178 10.8669H70.57C70.7416 12.1426 71.8269 12.9998 73.2179 12.9998C74.2467 12.9998 75.1415 12.6188 75.7318 11.9333L77.1604 13.3243C76.3032 14.4296 74.817 15.0198 73.1027 15.0198C70.2078 15.0198 68.1878 12.9822 68.1878 10.0861H68.1889ZM70.57 9.13372H75.3132C75.1604 7.89559 74.2079 7.05723 72.9322 7.05723C71.6564 7.05723 70.704 7.89559 70.57 9.13372Z" fill="#EC0000"/>
<path d="M81.8837 5.3817V6.65746H81.9213C82.3598 5.72386 83.3123 5.15241 84.4164 5.15241C86.7786 5.15241 87.9979 6.5046 87.9979 9.09492V14.7906H85.6357V9.55231C85.6357 7.95203 85.0642 7.20891 83.8637 7.20891C82.6632 7.20891 82.0165 8.04727 82.0165 9.60875V14.7894H79.6543V5.3817H81.8837Z" fill="#EC0000"/>
<path d="M91.0268 11.4195V7.34296H89.4077V5.38052H90.2648C91.0456 5.38052 91.3501 5.07599 91.3501 4.29525V2.82901H93.369V5.3817H95.6548V7.34413H93.369V11.4207C93.369 12.3355 93.8452 12.8493 94.7212 12.8493C94.9881 12.8493 95.3114 12.8117 95.5019 12.754V14.7353C95.2162 14.8117 94.6824 14.8682 94.2638 14.8682C92.1309 14.8682 91.0256 13.6876 91.0256 11.4207L91.0268 11.4195Z" fill="#EC0000"/>
<path d="M96.8177 10.0861C96.8177 7.17129 98.7801 5.15241 101.58 5.15241C104.379 5.15241 106.323 7.15247 106.323 10.0285C106.323 10.2566 106.285 10.6188 106.247 10.8669H99.1987C99.3703 12.1426 100.456 12.9998 101.847 12.9998C102.875 12.9998 103.77 12.6188 104.361 11.9333L105.789 13.3243C104.932 14.4296 103.446 15.0198 101.731 15.0198C98.8365 15.0198 96.8165 12.9822 96.8165 10.0861H96.8177ZM99.1987 9.13372H103.942C103.789 7.89559 102.837 7.05723 101.561 7.05723C100.285 7.05723 99.3327 7.89559 99.1987 9.13372Z" fill="#EC0000"/>
<path d="M23.7303 25.2671L28.6828 37.6484H26.0349L25.006 34.924H19.5009L18.472 37.6484H15.9193L20.8719 25.2671H23.7303ZM20.244 32.8675H24.2441L22.2629 27.6481H22.2252L20.244 32.8675Z" fill="#EC0000"/>
<path d="M32.4548 28.2395V29.5153H32.4924C32.9686 28.5441 33.807 28.0102 34.8923 28.0102C36.1116 28.0102 37.0252 28.544 37.5966 29.6105C38.1681 28.5817 39.2157 28.0102 40.5491 28.0102C42.8725 28.0102 43.9966 29.306 43.9966 31.9539V37.6496H41.6344V32.3537C41.6344 30.811 41.1006 30.0679 39.9965 30.0679C38.8924 30.0679 38.3009 30.8874 38.3009 32.4301V37.6496H35.9387V32.3537C35.9387 30.7922 35.4249 30.0679 34.3008 30.0679C33.1768 30.0679 32.6053 30.9063 32.6053 32.4301V37.6496H30.2431V28.2395H32.4548Z" fill="#EC0000"/>
<path d="M48.3412 33.7059C47.0655 33.3249 45.8273 32.6394 45.8273 30.9251C45.8273 29.2107 47.2748 28.0102 49.4277 28.0102C50.8751 28.0102 51.9992 28.5241 52.6282 29.4765L51.2761 30.8287C50.7998 30.2384 50.152 29.9139 49.4477 29.9139C48.6481 29.9139 48.1519 30.276 48.1519 30.8475C48.1519 31.6094 48.9515 31.7423 50.1143 32.1044C51.3901 32.4854 52.6282 33.1709 52.6282 34.8852C52.6282 36.5995 51.1044 37.8753 48.8562 37.8753C47.39 37.8753 46.2083 37.3615 45.5228 36.3891L46.875 35.0369C47.3888 35.646 48.0755 35.9705 48.8374 35.9705C49.7522 35.9705 50.3037 35.5895 50.3037 34.9605C50.3037 34.1985 49.5041 34.0657 48.3412 33.7035V33.7059Z" fill="#EC0000"/>
<path d="M55.1221 34.2773V30.2008H53.503V28.2383H54.3602C55.141 28.2383 55.4455 27.9338 55.4455 27.1531V25.6868H57.4644V28.2395H59.7501V30.2019H57.4644V34.2785C57.4644 35.1933 57.9406 35.7071 58.8165 35.7071C59.0835 35.7071 59.4068 35.6695 59.5973 35.6119V37.5931C59.3116 37.6695 58.7777 37.726 58.3592 37.726C56.2262 37.726 55.121 36.5455 55.121 34.2785L55.1221 34.2773Z" fill="#EC0000"/>
<path d="M60.9118 32.9439C60.9118 30.0291 62.8743 28.0102 65.6739 28.0102C68.4735 28.0102 70.4171 30.0103 70.4171 32.8863C70.4171 33.1144 70.3795 33.4766 70.3407 33.7247H63.2929C63.4645 35.0004 64.5498 35.8576 65.9408 35.8576C66.9696 35.8576 67.8644 35.4767 68.4547 34.7911L69.8833 36.1821C69.0261 37.2874 67.5399 37.8777 65.8256 37.8777C62.9307 37.8777 60.9107 35.84 60.9107 32.9439H60.9118ZM63.2929 31.9915H68.0361C67.8832 30.7534 66.9308 29.915 65.6551 29.915C64.3793 29.915 63.4269 30.7534 63.2929 31.9915Z" fill="#EC0000"/>
<path d="M74.6077 28.2395V29.801H74.6453C75.1027 28.7345 75.9411 28.1631 77.0452 28.1631C77.3309 28.1631 77.7307 28.2007 77.8835 28.2583V30.5065C77.6166 30.4301 77.1028 30.3736 76.7218 30.3736C75.5213 30.3736 74.7406 31.2884 74.7406 32.697V37.6495H72.3784V28.2395H74.6077Z" fill="#EC0000"/>
<path d="M78.5514 32.9827C78.5514 30.0679 80.475 28.0114 83.1994 28.0114C84.4563 28.0114 85.4852 28.564 86.133 29.5729H86.1707V23.8396H88.5329V37.6495H86.3047V36.1833H86.2671C85.658 37.2498 84.5151 37.8788 83.2006 37.8788C80.4762 37.8788 78.5526 35.8411 78.5526 32.9839L78.5514 32.9827ZM86.1707 32.9451C86.1707 31.2496 85.123 30.1255 83.5804 30.1255C82.0377 30.1255 80.9712 31.2684 80.9712 32.9451C80.9712 34.6218 82.0189 35.7647 83.5804 35.7647C85.1418 35.7647 86.1707 34.6406 86.1707 32.9451Z" fill="#EC0000"/>
<path d="M90.3413 34.9628C90.3413 33.1532 91.8463 32.068 94.3602 32.048L96.1886 32.0292V31.7246C96.1886 30.6194 95.4843 30.0479 94.2074 30.0479C93.369 30.0479 92.6259 30.3713 92.1121 30.9627L90.6834 29.5717C91.503 28.5617 92.8164 28.0102 94.4355 28.0102C96.9494 28.0102 98.5496 29.3812 98.5496 31.5718V35.305C98.5496 35.6483 98.7025 35.8 99.0835 35.8H99.2551V37.6472H98.1498C97.2551 37.6472 96.6448 37.2286 96.4543 36.5419H96.4167C95.8264 37.3991 94.8552 37.8753 93.6735 37.8753C91.6923 37.8753 90.3401 36.6948 90.3401 34.9605L90.3413 34.9628ZM96.1886 34.1433V33.6095L94.6271 33.6283C93.389 33.6471 92.7223 34.0857 92.7223 34.904C92.7223 35.6283 93.2937 36.1422 94.0933 36.1422C95.3314 36.1422 96.1886 35.3226 96.1886 34.1421V34.1433Z" fill="#EC0000"/>
<path d="M103.313 28.2395V29.5153H103.35C103.827 28.5441 104.665 28.0102 105.75 28.0102C106.97 28.0102 107.883 28.544 108.455 29.6105C109.026 28.5817 110.074 28.0102 111.407 28.0102C113.731 28.0102 114.855 29.306 114.855 31.9539V37.6496H112.492V32.3537C112.492 30.811 111.959 30.0679 110.855 30.0679C109.75 30.0679 109.159 30.8874 109.159 32.4301V37.6496H106.797V32.3537C106.797 30.7922 106.283 30.0679 105.159 30.0679C104.035 30.0679 103.463 30.9063 103.463 32.4301V37.6496H101.101V28.2395H103.313Z" fill="#EC0000"/>
<path d="M0 37.6484L3.52744 34.1209L0 30.5935L2.35163 28.2419L5.87907 31.7693L9.40651 28.2419L11.7581 30.5935L8.23069 34.1209L11.7581 37.6484L9.40651 40L5.87907 36.4726L2.35163 40L0 37.6484Z" fill="#EC0000"/>
<path d="M0 23.5398L3.52744 20.0123L0 16.4849L2.35163 14.1333L5.87907 17.6607L9.40651 14.1333L11.7581 16.4849L8.23069 20.0123L11.7581 23.5398L9.40651 25.8914L5.87907 22.364L2.35163 25.8914L0 23.5398Z" fill="#EC0000"/>
<path d="M0 9.40651L3.52744 5.87907L0 2.35163L2.35163 0L5.87907 3.52744L9.40651 0L11.7581 2.35163L8.23069 5.87907L11.7581 9.40651L9.40651 11.7581L5.87907 8.23069L2.3528 11.7581L0 9.40651Z" fill="#EC0000"/>
</svg>
